<?xml version="1.0" encoding="UTF-8" standalone="no"?>
<!DOCTYPE svg PUBLIC "-//W3C//DTD SVG 1.1//EN" "http://www.w3.org/Graphics/SVG/1.1/DTD/svg11.dtd">
<svg width="100%" height="100%" viewBox="0 0 512 512" version="1.1" xmlns="http://www.w3.org/2000/svg" xmlns:xlink="http://www.w3.org/1999/xlink" xml:space="preserve" xmlns:serif="http://www.serif.com/" style="fill-rule:evenodd;clip-rule:evenodd;stroke-linejoin:round;stroke-miterlimit:2;">
    <g transform="matrix(1,0,0,1,0.438188,-28)">
        <path d="M32,237.34C31.706,234.932 31.554,232.484 31.554,230C31.554,196.885 58.44,170 91.554,170C124.669,170 151.554,196.885 151.554,230L152,230L152,472.139C152.337,474.709 152.512,477.334 152.512,480C152.512,513.115 125.627,540 92.512,540C59.397,540 32.512,513.115 32.512,480L32,480L32,237.34Z" style="fill:rgb(18,126,253);"/>
    </g>
    <g transform="matrix(1.00405,0,0,1,-1.94078,0)">
        <path d="M358.974,383.208C360.417,351.375 386.721,325.969 418.912,325.969C452.027,325.969 478.912,352.854 478.912,385.969C478.912,388.634 478.737,391.26 478.4,393.83L478.4,444.167C478.737,446.737 478.912,449.363 478.912,452.028C478.912,485.143 452.027,512.028 418.912,512.028C386.721,512.028 360.417,486.623 358.974,454.789L358.4,454.797L358.4,383.2L358.974,383.208Z" style="fill:rgb(18,126,253);"/>
    </g>
    <path d="M196.624,209.34C196.33,206.932 196.179,204.484 196.179,202C196.179,199.516 196.33,197.068 196.624,194.66L196.624,67.34C196.33,64.932 196.179,62.484 196.179,60C196.179,26.885 223.064,0 256.179,0C289.294,0 316.179,26.885 316.179,60L316.624,60L316.624,302.139C316.962,304.709 317.136,307.334 317.136,310C317.136,312.666 316.962,315.291 316.624,317.861L316.624,444.139C316.962,446.709 317.136,449.334 317.136,452C317.136,485.115 290.251,512 257.136,512C224.021,512 197.136,485.115 197.136,452L196.624,452L196.624,209.34Z" style="fill:rgb(18,126,253);"/>
</svg>
